<svg width="119" height="20" viewBox="0 0 119 20" fill="none" xmlns="http://www.w3.org/2000/svg">
<path d="M0.400568 3.8125V1.54545H13.9091V3.8125H8.46307V19H5.83807V3.8125H0.400568ZM20.4332 19.2642C19.1435 19.2642 18.0327 18.9886 17.1009 18.4375C16.1747 17.8807 15.4588 17.0994 14.9531 16.0938C14.4531 15.0824 14.2031 13.8977 14.2031 12.5398C14.2031 11.1989 14.4531 10.017 14.9531 8.99432C15.4588 7.97159 16.1634 7.1733 17.0668 6.59943C17.9759 6.02557 19.0384 5.73864 20.2543 5.73864C20.9929 5.73864 21.7088 5.8608 22.402 6.10511C23.0952 6.34943 23.7173 6.73295 24.2685 7.25568C24.8196 7.77841 25.2543 8.45739 25.5724 9.29261C25.8906 10.1222 26.0497 11.1307 26.0497 12.3182V13.2216H15.6435V11.3125H23.5526C23.5526 10.642 23.4162 10.0483 23.1435 9.53125C22.8707 9.00852 22.4872 8.59659 21.9929 8.29545C21.5043 7.99432 20.9304 7.84375 20.2713 7.84375C19.5554 7.84375 18.9304 8.01989 18.3963 8.37216C17.8679 8.71875 17.4588 9.1733 17.169 9.7358C16.8849 10.2926 16.7429 10.8977 16.7429 11.5511V13.0426C16.7429 13.9176 16.8963 14.6619 17.2031 15.2756C17.5156 15.8892 17.9503 16.358 18.5071 16.6818C19.0639 17 19.7145 17.1591 20.4588 17.1591C20.9418 17.1591 21.3821 17.0909 21.7798 16.9545C22.1776 16.8125 22.5213 16.6023 22.8111 16.3239C23.1009 16.0455 23.3224 15.7017 23.4759 15.2926L25.8878 15.7273C25.6946 16.4375 25.348 17.0597 24.848 17.5938C24.3537 18.1222 23.7315 18.5341 22.9815 18.8295C22.2372 19.1193 21.3878 19.2642 20.4332 19.2642ZM34.3913 19.2642C33.1243 19.2642 32.0334 18.9773 31.1186 18.4034C30.2095 17.8239 29.5107 17.0256 29.022 16.0085C28.5334 14.9915 28.2891 13.8267 28.2891 12.5142C28.2891 11.1847 28.5391 10.0114 29.0391 8.99432C29.5391 7.97159 30.2436 7.1733 31.1527 6.59943C32.0618 6.02557 33.1328 5.73864 34.3658 5.73864C35.3601 5.73864 36.2464 5.9233 37.0249 6.29261C37.8033 6.65625 38.4311 7.16761 38.9084 7.8267C39.3913 8.4858 39.6783 9.25568 39.7692 10.1364H37.2891C37.1527 9.52273 36.8402 8.99432 36.3516 8.55114C35.8686 8.10795 35.2209 7.88636 34.4084 7.88636C33.6982 7.88636 33.076 8.07386 32.5419 8.44886C32.0135 8.81818 31.6016 9.34659 31.3061 10.0341C31.0107 10.7159 30.8629 11.5227 30.8629 12.4545C30.8629 13.4091 31.0078 14.233 31.2976 14.9261C31.5874 15.6193 31.9964 16.1562 32.5249 16.5369C33.0589 16.9176 33.6868 17.108 34.4084 17.108C34.8913 17.108 35.3288 17.0199 35.7209 16.8438C36.1186 16.6619 36.451 16.4034 36.718 16.0682C36.9908 15.733 37.1811 15.3295 37.2891 14.858H39.7692C39.6783 15.7045 39.4027 16.4602 38.9425 17.125C38.4822 17.7898 37.8658 18.3125 37.093 18.6932C36.326 19.0739 35.4254 19.2642 34.3913 19.2642ZM45.0426 11.2273V19H42.4943V1.54545H45.0085V8.03977H45.1705C45.4773 7.33523 45.946 6.77557 46.5767 6.36079C47.2074 5.94602 48.0313 5.73864 49.0483 5.73864C49.946 5.73864 50.7301 5.9233 51.4006 6.29261C52.0767 6.66193 52.5994 7.21307 52.9688 7.94602C53.3438 8.6733 53.5312 9.58239 53.5312 10.6733V19H50.983V10.9801C50.983 10.0199 50.7358 9.27557 50.2415 8.74716C49.7472 8.21307 49.0597 7.94602 48.179 7.94602C47.5767 7.94602 47.0369 8.07386 46.5597 8.32955C46.0881 8.58523 45.7159 8.96023 45.4432 9.45455C45.1761 9.94318 45.0426 10.5341 45.0426 11.2273ZM63.4879 19V1.54545H66.1214V9.13068H74.8232V1.54545H77.4652V19H74.8232V11.3892H66.1214V19H63.4879ZM86.7379 19.2642C85.4482 19.2642 84.3374 18.9886 83.4055 18.4375C82.4794 17.8807 81.7635 17.0994 81.2578 16.0938C80.7578 15.0824 80.5078 13.8977 80.5078 12.5398C80.5078 11.1989 80.7578 10.017 81.2578 8.99432C81.7635 7.97159 82.468 7.1733 83.3714 6.59943C84.2805 6.02557 85.343 5.73864 86.5589 5.73864C87.2976 5.73864 88.0135 5.8608 88.7067 6.10511C89.3999 6.34943 90.022 6.73295 90.5732 7.25568C91.1243 7.77841 91.5589 8.45739 91.8771 9.29261C92.1953 10.1222 92.3544 11.1307 92.3544 12.3182V13.2216H81.9482V11.3125H89.8572C89.8572 10.642 89.7209 10.0483 89.4482 9.53125C89.1754 9.00852 88.7919 8.59659 88.2976 8.29545C87.8089 7.99432 87.2351 7.84375 86.576 7.84375C85.8601 7.84375 85.2351 8.01989 84.701 8.37216C84.1726 8.71875 83.7635 9.1733 83.4737 9.7358C83.1896 10.2926 83.0476 10.8977 83.0476 11.5511V13.0426C83.0476 13.9176 83.201 14.6619 83.5078 15.2756C83.8203 15.8892 84.255 16.358 84.8118 16.6818C85.3686 17 86.0192 17.1591 86.7635 17.1591C87.2464 17.1591 87.6868 17.0909 88.0845 16.9545C88.4822 16.8125 88.826 16.6023 89.1158 16.3239C89.4055 16.0455 89.6271 15.7017 89.7805 15.2926L92.1925 15.7273C91.9993 16.4375 91.6527 17.0597 91.1527 17.5938C90.6584 18.1222 90.0362 18.5341 89.2862 18.8295C88.5419 19.1193 87.6925 19.2642 86.7379 19.2642ZM95.1818 19V5.90909H97.7301V19H95.1818ZM96.4688 3.8892C96.0256 3.8892 95.6449 3.74148 95.3267 3.44602C95.0142 3.14489 94.858 2.78693 94.858 2.37216C94.858 1.9517 95.0142 1.59375 95.3267 1.29829C95.6449 0.997159 96.0256 0.846591 96.4688 0.846591C96.9119 0.846591 97.2898 0.997159 97.6023 1.29829C97.9205 1.59375 98.0795 1.9517 98.0795 2.37216C98.0795 2.78693 97.9205 3.14489 97.6023 3.44602C97.2898 3.74148 96.9119 3.8892 96.4688 3.8892ZM101.158 19V5.90909H103.604V8.03977H103.766C104.039 7.31818 104.485 6.75568 105.104 6.35227C105.724 5.94318 106.465 5.73864 107.329 5.73864C108.204 5.73864 108.937 5.94318 109.528 6.35227C110.124 6.76136 110.565 7.32386 110.849 8.03977H110.985C111.298 7.34091 111.795 6.78409 112.477 6.36932C113.158 5.94886 113.971 5.73864 114.914 5.73864C116.102 5.73864 117.07 6.1108 117.82 6.85511C118.576 7.59943 118.954 8.72159 118.954 10.2216V19H116.406V10.4602C116.406 9.57386 116.164 8.93182 115.681 8.53409C115.198 8.13636 114.621 7.9375 113.951 7.9375C113.121 7.9375 112.477 8.19318 112.016 8.70455C111.556 9.21023 111.326 9.8608 111.326 10.6562V19H108.786V10.2983C108.786 9.58807 108.565 9.01705 108.121 8.58523C107.678 8.15341 107.102 7.9375 106.391 7.9375C105.908 7.9375 105.462 8.06534 105.053 8.32102C104.65 8.57102 104.323 8.92045 104.073 9.36932C103.829 9.81818 103.707 10.3381 103.707 10.929V19H101.158Z" fill="#0951BE"/>
</svg>
